Coordinates
version=1
nRows=17
nColumns=40
inDegrees=yes

Units are S.I. units (second, meters, Newtons, ...)
If the header above contains a line with 'inDegrees', this indicates whether rotational values are in degrees (yes) or radians (no).

endheader
time	pelvis_tilt	pelvis_list	pelvis_rotation	pelvis_tx	pelvis_ty	pelvis_tz	hip_flexion_r	hip_adduction_r	hip_rotation_r	knee_angle_r	knee_angle_r_beta	ankle_angle_r	subtalar_angle_r	mtp_angle_r	hip_flexion_l	hip_adduction_l	hip_rotation_l	knee_angle_l	knee_angle_l_beta	ankle_angle_l	subtalar_angle_l	mtp_angle_l	lumbar_extension	lumbar_bending	lumbar_rotation	arm_flex_r	arm_add_r	arm_rot_r	elbow_flex_r	pro_sup_r	wrist_flex_r	wrist_dev_r	arm_flex_l	arm_add_l	arm_rot_l	elbow_flex_l	pro_sup_l	wrist_flex_l	wrist_dev_l
      3.88300000	    -22.77643189	     -2.99269688	      1.59326473	      0.09114911	      1.28116095	     -0.00734919	     80.48821793	     -2.43700387	      6.38886424	     79.38258917	      1.38548755	     10.81279758	    -25.51830371	      0.00000000	     49.64968097	    -10.54436344	     -2.42957070	     62.04412759	      1.08287431	     -0.92675975	    -19.11409507	      0.00000000	    -43.78589803	     -4.27946849	      7.45415497	     55.42148711	     14.99317986	    -41.00161064	     52.27955498	      0.85245012	      0.00000000	      0.00000000	     50.35798082	      9.70189825	    -23.84183715	     44.82238341	      4.02326748	      0.00000000	      0.00000000
      3.90000000	    -22.40371251	     -2.46920388	      2.84003268	      0.09105275	      1.28205299	     -0.00916394	     77.54290482	     -3.90075968	      5.92033309	     73.50540609	      1.28291135	      9.32470991	    -25.24389818	      0.00000000	     51.79095783	     -9.58023002	     -1.61030474	     68.74324375	      1.19979594	      0.48639943	    -18.94984734	      0.00000000	    -44.14251984	     -4.05443185	      6.38694642	     55.28300514	     14.98849038	    -41.44127936	     52.52301229	      0.83666341	      0.00000000	      0.00000000	     50.50246600	      9.61415498	    -23.23000500	     44.63579420	      3.86202550	      0.00000000	      0.00000000
      3.91700000	    -22.14047628	     -2.20119444	      4.43766607	      0.09060736	      1.28284232	     -0.01116122	     74.14190378	     -5.70586717	      4.52257840	     67.43204104	      1.17691114	      7.16000952	    -24.92540212	      0.00000000	     54.50640139	     -8.71781471	     -0.53764624	     75.32572457	      1.31468191	      1.39005465	    -18.05792233	      0.00000000	    -44.39148269	     -3.49507486	      5.23447087	     55.16354157	     14.95715524	    -41.84835643	     52.66685230	      0.84020276	      0.00000000	      0.00000000	     50.64611255	      9.57466368	    -22.57456011	     44.45522694	      3.70482156	      0.00000000	      0.00000000
      3.93300000	    -21.91955453	     -1.91309707	      6.21833031	      0.09003184	      1.28360280	     -0.01336252	     70.27327171	     -7.70331409	      2.55632633	     61.07231221	      1.06591293	      4.16111595	    -24.22920109	      0.00000000	     57.54253430	     -7.79172251	      0.42865109	     81.77710435	      1.42727972	      2.18534827	    -16.98855837	      0.00000000	    -44.61472323	     -2.89719247	      3.91631486	     55.01329987	     14.91324314	    -42.28559149	     52.80565801	      0.82826444	      0.00000000	      0.00000000	     50.80215148	      9.52607599	    -21.97827885	     44.30723403	      3.99801957	      0.00000000	      0.00000000
      3.95000000	    -21.83000753	     -1.66191673	      7.93639208	      0.08944323	      1.28409080	     -0.01545773	     66.44755830	     -9.60028362	      0.29853298	     55.09820044	      0.96164501	      0.60113854	    -23.14735165	      0.00000000	     60.64569741	     -6.82877436	      1.31273386	     87.49272602	      1.52703614	      2.93132097	    -16.16309749	      0.00000000	    -44.73087151	     -2.30677638	      2.68365202	     54.83546048	     14.84722899	    -42.72706180	     52.97613633	      0.82687077	      0.00000000	      0.00000000	     50.92576855	      9.46973193	    -21.29108661	     44.15517661	      3.94672638	      0.00000000	      0.00000000
      3.96700000	    -21.91645037	     -1.49031469	      9.55145522	      0.08877579	      1.28435416	     -0.01728988	     62.73334001	    -11.35909728	     -2.21703117	     49.60195233	      0.86571738	     -3.41080158	    -21.49068226	      0.00000000	     63.81964117	     -5.86006431	      2.14291037	     92.40968657	      1.61285329	      4.02939794	    -15.45273803	      0.00000000	    -44.74230680	     -1.74935713	      1.58503802	     54.61043926	     14.79755496	    -43.12677073	     53.26040414	      0.82109929	      0.00000000	      0.00000000	     51.12292801	      9.46456878	    -20.57196672	     43.95438350	      3.78943435	      0.00000000	      0.00000000
      3.98300000	    -22.12824362	     -1.41361603	     11.06028809	      0.08810473	      1.28437284	     -0.01892911	     59.05582737	    -12.95048273	     -5.11795066	     44.50802599	      0.77681160	     -7.84048171	    -19.29001972	      0.00000000	     67.13210997	     -4.97943265	      2.85681740	     96.70000546	      1.68773348	      5.42019458	    -14.80425319	      0.00000000	    -44.65086936	     -1.20451548	      0.60776406	     54.36703701	     14.73298959	    -43.55286536	     53.55950599	      0.82227597	      0.00000000	      0.00000000	     51.31484703	      9.46899978	    -19.83824473	     43.72518204	      3.81343987	      0.00000000	      0.00000000
      4.00000000	    -22.31653101	     -1.31942146	     12.47577175	      0.08759483	      1.28428356	     -0.02029299	     55.61287784	    -14.29348257	     -7.88970836	     40.34676287	      0.70418385	    -11.84543148	    -17.31772206	      0.00000000	     70.25382136	     -4.08702632	      3.45806198	    100.09788723	      1.74703771	      7.09753804	    -13.95048741	      0.00000000	    -44.56029662	     -0.67989379	     -0.33329917	     54.09081667	     14.61721586	    -43.79089587	     53.81837493	      0.81155552	      0.00000000	      0.00000000	     51.45956327	      9.49969324	    -19.23718370	     43.54119426	      3.71426970	      0.00000000	      0.00000000
      4.01700000	    -22.60029093	     -1.05194855	     13.54744195	      0.08719315	      1.28408528	     -0.02110958	     52.71100971	    -15.35556148	    -10.08730157	     37.36955136	      0.65222171	    -15.31418073	    -15.99579253	      0.00000000	     73.25872655	     -3.31266783	      3.67232822	    102.60178599	      1.79073898	      9.02058261	    -13.16542743	      0.00000000	    -44.36474548	     -0.45498586	     -1.19962530	     53.79031081	     14.38498042	    -43.83844273	     53.93415008	      0.80520122	      0.00000000	      0.00000000	     51.52350857	      9.54780722	    -18.81023237	     43.36400227	      3.72307087	      0.00000000	      0.00000000
      4.03300000	    -22.99589158	     -0.61843662	     14.25484011	      0.08683683	      1.28374518	     -0.02141505	     50.36864510	    -16.18848958	    -11.45285046	     35.49737627	      0.61954609	    -18.24352518	    -15.10742484	      0.00000000	     76.14836112	     -2.75404098	      3.41749240	    104.25057151	      1.81951572	     11.13936516	    -12.80224870	      0.00000000	    -44.09398085	     -0.56992718	     -1.94669928	     53.49398052	     14.11759817	    -43.80088176	     54.00198516	      0.79850102	      0.00000000	      0.00000000	     51.55590183	      9.64514784	    -18.52921730	     43.18936455	      3.94632480	      0.00000000	      0.00000000
      4.05000000	    -23.20777598	     -0.48738754	     15.04312496	      0.08676898	      1.28349851	     -0.02192250	     48.14536753	    -16.80288601	    -13.06326822	     34.60584897	      0.60398600	    -19.72303256	    -14.94519962	      0.00000000	     78.62745862	     -2.21994033	      3.45696058	    104.82018403	      1.82945733	     12.97162120	    -12.05331325	      0.00000000	    -43.95269444	     -0.31481650	     -2.55146910	     53.21355794	     13.84689223	    -43.61206307	     54.09871604	      0.79400523	      0.00000000	      0.00000000	     51.53971679	      9.69357609	    -18.29012506	     43.13120261	      3.89070943	      0.00000000	      0.00000000
      4.06700000	    -23.41509824	     -0.31609572	     15.62992205	      0.08693165	      1.28305214	     -0.02234630	     46.35904573	    -17.16816624	    -14.06016344	     34.84644133	      0.60818513	    -19.24867160	    -15.63662460	      0.00000000	     80.68040584	     -1.90783966	      3.15639359	    104.14522086	      1.81767700	     14.27639265	    -11.88995658	      0.00000000	    -43.84981523	     -0.23313670	     -3.03376054	     52.95622265	     13.71204184	    -43.51034901	     54.26475127	      0.79002282	      0.00000000	      0.00000000	     51.50516347	      9.79221199	    -18.19005027	     43.17279996	      3.89853881	      0.00000000	      0.00000000
      4.08300000	    -23.57588393	     -0.16343887	     16.04880083	      0.08725904	      1.28265828	     -0.02268687	     44.97338152	    -17.34870468	    -14.50919453	     36.10573438	      0.63016394	    -17.58984982	    -16.95428794	      0.00000000	     82.28718210	     -1.75370758	      2.70885449	    102.37712836	      1.78681797	     14.90122988	    -11.98059226	      0.00000000	    -43.82001644	     -0.20025499	     -3.40833765	     52.76133835	     13.66494573	    -43.40953037	     54.43955740	      0.78033367	      0.00000000	      0.00000000	     51.46040294	      9.87834511	    -18.20052119	     43.29352740	      3.94337412	      0.00000000	      0.00000000
      4.10000000	    -23.45902637	     -0.18502627	     16.02307496	      0.08790730	      1.28260415	     -0.02262151	     44.11610574	    -17.20931678	    -14.44814297	     38.45090286	      0.67109486	    -15.66676358	    -18.12266002	      0.00000000	     83.05940736	     -1.92013773	      2.48646334	     99.84815981	      1.74267914	     15.07755613	    -12.15311366	      0.00000000	    -44.03361528	     -0.18357185	     -3.29120317	     52.72536218	     13.59073905	    -43.35941765	     54.52590247	      0.70795296	      0.00000000	      0.00000000	     51.42766871	      9.99065648	    -18.26140933	     43.47507406	      4.35220259	      0.00000000	      0.00000000
      4.11700000	    -23.42333220	     -0.03072411	     15.88548187	      0.08858410	      1.28256810	     -0.02244985	     44.18329019	    -17.21445963	    -13.36707052	     42.05446098	      0.73398881	    -12.82538961	    -20.15874793	      0.00000000	     83.13828439	     -1.92290331	      2.08177796	     96.33267579	      1.68132237	     14.72602386	    -12.46042175	      0.00000000	    -44.23904335	     -0.32090057	     -3.30733774	     52.70112937	     13.51367678	    -43.06626325	     54.66546306	      0.77520151	      0.00000000	      0.00000000	     51.44679878	     10.02707084	    -18.30357732	     43.65746643	      4.35909189	      0.00000000	      0.00000000
      4.13300000	    -23.62378424	      0.29373317	     15.21614938	      0.08911130	      1.28221888	     -0.02180032	     45.53810187	    -17.14498761	    -11.11870914	     46.91304564	      0.81878711	    -10.56692362	    -22.08648679	      0.00000000	     82.75117445	     -2.18764452	      1.43464467	     91.96671950	      1.60512206	     13.59499329	    -13.34501461	      0.00000000	    -44.24682447	     -0.93775108	     -3.07559233	     52.69575422	     13.42585307	    -42.84657947	     54.80359182	      0.77404922	      0.00000000	      0.00000000	     51.44933789	     10.04343914	    -18.14988218	     43.86672201	      4.10237392	      0.00000000	      0.00000000
      4.15000000	    -23.45593409	      0.25034623	     14.29447393	      0.08973052	      1.28236819	     -0.02077618	     47.10298355	    -16.55759212	     -8.90247611	     52.41360734	      0.91479002	     -8.23019687	    -23.51028410	      0.00000000	     81.51721992	     -2.69969815	      1.43361931	     87.22347823	      1.52233688	     12.19486253	    -13.82065439	      0.00000000	    -44.46237178	     -1.30042765	     -2.38667932	     52.80845848	     13.38417020	    -42.57041455	     54.84937328	      0.77626964	      0.00000000	      0.00000000	     51.43805727	     10.04347847	    -18.20489452	     44.05751367	      3.94346266	      0.00000000	      0.00000000
